<?xml version="1.0" standalone="no"?>
<!DOCTYPE svg PUBLIC "-//W3C//DTD SVG 20010904//EN"
 "http://www.w3.org/TR/2001/REC-SVG-20010904/DTD/svg10.dtd">
<svg version="1.0" xmlns="http://www.w3.org/2000/svg"
 width="24.000000pt" height="24.000000pt" viewBox="0 0 24.000000 24.000000"
 preserveAspectRatio="xMidYMid meet">

<g transform="translate(0.000000,24.000000) scale(0.100000,-0.100000)"
fill="#000000" stroke="none">
<path d="M93 220 c-6 -22 -49 -28 -55 -8 -3 7 -12 9 -21 5 -15 -6 -17 -19 -15
-99 l3 -93 33 -1 c18 0 38 -7 43 -15 8 -12 10 -12 18 0 7 11 27 14 75 12 l66
-2 0 90 c0 50 -4 91 -8 91 -5 0 -7 -13 -4 -30 4 -26 1 -30 -18 -30 -19 0 -22
4 -18 30 4 26 1 30 -18 30 -13 0 -24 8 -27 20 -3 12 -14 20 -27 20 -13 0 -24
-8 -27 -20z m-63 -85 c0 -43 -4 -75 -10 -75 -6 0 -10 32 -10 75 0 43 4 75 10
75 6 0 10 -32 10 -75z m59 -8 c9 -2 31 -2 49 1 28 4 32 8 34 36 l1 31 4 -32
c4 -27 9 -33 29 -33 13 0 24 -5 24 -11 0 -6 -12 -10 -27 -9 -16 1 -39 2 -53 1
-23 -1 -23 -2 15 -41 51 -53 33 -52 -21 1 -29 29 -50 41 -73 41 -17 1 -31 5
-31 10 0 4 5 8 10 8 6 0 11 15 12 33 l1 32 4 -31 c3 -20 11 -34 22 -37z m15
28 c3 -8 1 -15 -4 -15 -6 0 -10 7 -10 15 0 8 2 15 4 15 2 0 6 -7 10 -15z m42
-12 c-10 -10 -19 5 -10 18 6 11 8 11 12 0 2 -7 1 -15 -2 -18z m-16 -78 c31
-32 32 -35 12 -35 -15 0 -22 6 -22 19 0 10 -7 24 -15 31 -13 10 -19 10 -35 -5
-10 -9 -16 -23 -13 -31 3 -9 -2 -14 -16 -14 -25 0 -26 6 -6 26 8 8 12 21 9 29
-5 11 1 15 23 15 20 0 40 -11 63 -35z m60 31 c0 -11 -19 -15 -25 -6 -3 5 1 10
9 10 9 0 16 -2 16 -4z m40 -47 c0 -11 -4 -18 -10 -14 -5 3 -7 12 -3 20 7 21
13 19 13 -6z"/>
</g>
</svg>
